<svg width="497" height="96" viewBox="0 0 497 96" fill="none" xmlns="http://www.w3.org/2000/svg">
<path d="M448.829 95.9999L427.884 75.0547L454.938 47.9999L427.884 20.9451L448.829 -3.42166e-06L496.829 47.9999L448.829 95.9999Z" fill="white"/>
<path d="M448.829 95.9999L427.884 75.0547L454.938 47.9999L427.884 20.9451L448.829 -3.42166e-06L496.829 47.9999L448.829 95.9999Z" fill="url(#paint0_radial_259_827)"/>
<path d="M448.829 95.9999L427.884 75.0547L454.938 47.9999L427.884 20.9451L448.829 -3.42166e-06L496.829 47.9999L448.829 95.9999Z" fill="url(#paint1_radial_259_827)"/>
<path d="M455.824 47.9999L428.77 75.0547L448.829 95.1138L495.943 47.9999L448.829 0.886032L428.77 20.9451L455.824 47.9999ZM427.884 20.9451L448.829 -3.42166e-06L496.829 47.9999L448.829 95.9999L427.884 75.0547L454.938 47.9999L427.884 20.9451Z" fill="url(#paint2_linear_259_827)"/>
<path d="M438.704 48.0001L417.759 68.9452L390.705 41.8908L363.65 68.9456L342.704 48.0001L390.704 0.00012207L438.704 48.0001Z" fill="white"/>
<path d="M438.704 48.0001L417.759 68.9452L390.705 41.8908L363.65 68.9456L342.704 48.0001L390.704 0.00012207L438.704 48.0001Z" fill="url(#paint3_radial_259_827)"/>
<path d="M438.704 48.0001L417.759 68.9452L390.705 41.8908L363.65 68.9456L342.704 48.0001L390.704 0.00012207L438.704 48.0001Z" fill="url(#paint4_radial_259_827)"/>
<path d="M390.705 41.0048L417.759 68.0592L437.818 48.0001L390.704 0.886158L343.59 48.0001L363.65 68.0596L390.705 41.0048ZM363.65 68.9456L342.704 48.0001L390.704 0.00012207L438.704 48.0001L417.759 68.9452L390.705 41.8908L363.65 68.9456Z" fill="url(#paint5_linear_259_827)"/>
<path d="M291.262 33.656C306.838 33.656 318.982 43.248 318.982 57.856C318.982 72.464 306.838 81.968 291.262 81.968C275.686 81.968 263.63 72.464 263.63 57.856C263.63 43.248 275.686 33.656 291.262 33.656ZM291.262 70.528C299.006 70.528 305.254 65.952 305.254 57.856C305.254 49.848 299.006 45.184 291.262 45.184C283.606 45.184 277.358 49.848 277.358 57.856C277.358 65.952 283.606 70.528 291.262 70.528Z" fill="#161618"/>
<path d="M226.536 65.952V46.24H215.976V34.624H226.536V21.776H240.352V34.624H259.624V46.24H240.352V62.784C240.352 67.8 243.168 69.648 249.064 69.648C252.672 69.648 256.016 68.768 259.096 67.712L261.648 78.888C257.688 80.384 251.88 81.704 245.368 81.704C234.896 81.704 226.536 77.304 226.536 65.952Z" fill="#161618"/>
<path d="M161.966 57.856C161.966 43.512 173.67 33.656 189.862 33.656C203.678 33.656 212.654 41.312 215.118 48.968L202.974 54.16C201.39 49.32 196.638 45.184 189.774 45.184C181.678 45.184 175.694 49.936 175.694 57.856C175.694 65.688 181.678 70.528 189.774 70.528C196.638 70.528 201.39 66.392 202.974 61.464L215.118 66.832C212.566 74.4 203.678 81.968 189.862 81.968C173.67 81.968 161.966 72.112 161.966 57.856Z" fill="#161618"/>
<path d="M131.511 70.792C137.671 70.792 142.599 67.976 144.623 63.488L157.031 67.976C153.687 76.16 143.743 81.968 131.599 81.968C115.143 81.968 103.615 72.2 103.615 57.768C103.615 44.04 115.143 33.656 131.511 33.656C148.143 33.656 157.823 44.392 157.823 57.592V61.464H117.343C118.927 67.36 124.295 70.792 131.511 70.792ZM131.071 44.568C124.911 44.568 119.631 47.384 117.695 52.84H143.655C143.039 48.968 138.463 44.568 131.071 44.568Z" fill="#161618"/>
<path d="M97.3852 17.816V81H83.3052V17.816H97.3852Z" fill="#161618"/>
<path d="M31.592 17.816H48.224L79.64 81H63.712L57.024 67.448H22.352L15.664 81H0L31.592 17.816ZM39.776 32.248L28.336 55.304H51.128L39.776 32.248Z" fill="#161618"/>
<defs>
<radialGradient id="paint0_radial_259_827" cx="0" cy="0" r="1" gradientUnits="userSpaceOnUse" gradientTransform="translate(467.695 17.2294) rotate(114.958) scale(54.9387 326.183)">
<stop stop-color="#FF9E4E"/>
<stop offset="1" stop-color="#FF9E4E" stop-opacity="0"/>
</radialGradient>
<radialGradient id="paint1_radial_259_827" cx="0" cy="0" r="1" gradientUnits="userSpaceOnUse" gradientTransform="translate(480.852 87.0866) rotate(-112.109) scale(54.0999 97.6212)">
<stop stop-color="#51B4FF"/>
<stop offset="1" stop-color="#51B4FF" stop-opacity="0"/>
</radialGradient>
<linearGradient id="paint2_linear_259_827" x1="448.586" y1="30.3864" x2="448.586" y2="62.6522" gradientUnits="userSpaceOnUse">
<stop stop-color="#FF9E4E"/>
<stop offset="1" stop-color="#51B4FF"/>
</linearGradient>
<radialGradient id="paint3_radial_259_827" cx="0" cy="0" r="1" gradientUnits="userSpaceOnUse" gradientTransform="translate(390.946 71.7369) rotate(-112.668) scale(57.7123 104.14)">
<stop stop-color="#51B4FF"/>
<stop offset="1" stop-color="#51B4FF" stop-opacity="0"/>
</radialGradient>
<radialGradient id="paint4_radial_259_827" cx="0" cy="0" r="1" gradientUnits="userSpaceOnUse" gradientTransform="translate(384.681 0.000122088) rotate(82.6004) scale(48.6473 82.4464)">
<stop stop-color="#FF9E4E"/>
<stop offset="1" stop-color="#FF9E4E" stop-opacity="0"/>
</radialGradient>
<linearGradient id="paint5_linear_259_827" x1="390.946" y1="15.3498" x2="390.946" y2="43.5433" gradientUnits="userSpaceOnUse">
<stop stop-color="#FF9E4E"/>
<stop offset="1" stop-color="#51B4FF"/>
</linearGradient>
</defs>
</svg>
