<?xml version="1.0" encoding="utf-8"?>
<!-- Generator: Adobe Illustrator 24.3.0, SVG Export Plug-In . SVG Version: 6.00 Build 0)  -->
<svg version="1.1" xmlns="http://www.w3.org/2000/svg" xmlns:xlink="http://www.w3.org/1999/xlink" x="0px" y="0px"
	 viewBox="0 0 155.5871277 67.8674774" style="enable-background:new 0 0 155.5871277 67.8674774;" xml:space="preserve">
<style type="text/css">
	.st0{fill:#033953;}
	.st1{fill:url(#SVGID_1_);}
	.st2{fill:url(#SVGID_2_);}
	.st3{fill:url(#SVGID_3_);}
	.st4{fill:#13294B;}
</style>
<g id="POS">
	<g>
		<g>
			<path class="st0" d="M49.2143745,67.7470932h1.0823326V64.199173h2.3214417c1.5515747,0,2.5857239-0.9498634,2.5857239-2.3696022
				c0-1.39505-1.0341492-2.3331909-2.5857239-2.3331909h-3.4037743V67.7470932L49.2143745,67.7470932z M50.2967072,63.2366104
				v-2.7780075h2.3214417c0.9017487,0,1.5034142,0.5529137,1.5034142,1.3709679
				c0,0.8421097-0.6016655,1.4070396-1.5034142,1.4070396H50.2967072L50.2967072,63.2366104z M58.6627121,67.8674774
				c0.8178062,0,1.6722527-0.4568863,2.1414452-1.1304245v1.0100403h0.961338v-6.0138474h-0.961338v1.0103836
				c-0.4691925-0.6735916-1.3236389-1.1304741-2.1414452-1.1304741c-1.7555809,0-2.934803,1.2505875-2.934803,3.1271858
				C55.7279091,66.6166229,56.9071312,67.8674774,58.6627121,67.8674774 M58.7587433,67.0253448
				c-1.238224,0-2.0686607-0.9143829-2.0686607-2.2850037c0-1.3712616,0.8304367-2.2850266,2.0686607-2.2850266
				c1.2274094,0,2.045414,0.913765,2.045414,2.2850266C60.8041573,66.1109619,59.9861526,67.0253448,58.7587433,67.0253448
				 M63.1945114,67.7470932h0.9622726V64.235321c0-1.0708809,0.7217484-1.7800064,1.804039-1.7800064h0.4093323v-0.7220688
				c-0.1206741-0.0719261-0.3130112-0.1200905-0.492981-0.1200905c-0.6739349,0-1.2273865,0.3009911-1.7203903,0.949913v-0.8298225
				h-0.9622726V67.7470932L63.1945114,67.7470932z M69.8681488,67.8674774c0.2891922,0,0.6862411-0.0481415,0.9863052-0.1203842
				v-0.7217484h-1.0459213c-0.4574966,0-0.7698898-0.3250275-0.7698898-0.8180542v-3.6318893h1.7561951v-0.8421555h-1.7561951
				v-2.236866h-0.9622192v2.236866h-0.9622498v0.8421555h0.9622498v3.6318893
				C68.0764236,67.2059479,68.7981949,67.8674774,69.8681488,67.8674774 M77.5295563,67.8674774
				c1.8158112,0,3.019165-1.2508545,3.019165-3.1271362c0-1.8765984-1.2033539-3.1271858-3.019165-3.1271858
				s-3.0185242,1.2505875-3.0185242,3.1271858C74.5110321,66.6166229,75.7137451,67.8674774,77.5295563,67.8674774
				 M77.5295563,67.0253448c-1.2391052,0-2.0568619-0.9143829-2.0568619-2.2850037
				c0-1.3712616,0.8177567-2.2850266,2.0568619-2.2850266c1.2388611,0,2.0568924,0.913765,2.0568924,2.2850266
				C79.5864487,66.1109619,78.7684174,67.0253448,77.5295563,67.0253448 M81.9915848,67.7470932h0.9622116v-5.1716919h1.3469086
				v-0.8421555h-1.3469086v-0.6735649c0-0.5769958,0.2164001-0.8057442,0.7698746-0.8057442h0.577034v-0.7575569
				c-0.156517-0.0719261-0.4087448-0.1200867-0.6495056-0.1200867c-0.9981003,0-1.6596146,0.6729774-1.6596146,1.6833878v0.6735649
				h-0.9619522v0.8421555h0.9619522V67.7470932L81.9915848,67.7470932z"/>
		</g>
		<path class="st0" d="M153.4644165,59.4566612c0-1.1593742-0.0493164-2.3208771-0.2477875-3.0462265
			c-0.7261353-0.199234-1.8806458-0.2483025-3.0468903-0.2483025c-1.1656189,0-2.3201599,0.0490685-3.0462646,0.2483025
			c-0.1985016,0.7253494-0.2484131,1.8844299-0.2484131,3.0462265c0,1.1620445,0.0499115,2.3208542,0.2484131,3.0462036
			c0.7261047,0.1992569,1.8812714,0.2485695,3.0462646,0.2485695c1.1656189,0,2.320755-0.0493126,3.0468903-0.2485695
			C153.4151001,61.7775154,153.4644165,60.6160126,153.4644165,59.4566612 M149.614975,58.3156433
			c0,0.3280563,0.3322449,0.4421501,0.9566498,0.6817131c0.777298,0.2997932,1.3400726,0.5875168,1.3400726,1.4703026
			c0,0.9435463-0.6268921,1.4829025-1.8880463,1.4829025c-1.0534363,0-1.595871-0.3666-1.595871-0.3666l0.309433-0.8505554
			c0,0,0.5011292,0.3006744,1.286438,0.3006744c0.6182404,0,0.7809906-0.271183,0.7809906-0.4999313
			c0-0.3018951-0.2681427-0.4806442-1.0509796-0.7476425c-0.8327484-0.2835197-1.2457428-0.6904259-1.2457428-1.4097557
			c0-0.8382416,0.6287231-1.4140167,1.7678375-1.4140167c0.8531036,0,1.4091034,0.3322678,1.4091034,0.3322678l-0.3125305,0.8463669
			c0,0-0.5140839-0.2633514-1.0349426-0.2633514C149.7419586,57.8780174,149.614975,58.1055412,149.614975,58.3156433
			 M142.4813232,62.0432663c0.4826508-0.832222,0.9505005-1.6921005,1.4017029-2.5797043h-2.0439911
			c-0.2545776,0.5688705-0.5319672,1.1340942-0.833374,1.6951103c-0.302063,0.5607224-0.6188812,1.1223488-0.9523468,1.6833878
			c-0.3322449-0.561039-0.6453857-1.1226654-0.9375458-1.6833878c-0.2934113-0.5610161-0.5658722-1.1262398-0.8185883-1.6951103
			h-2.1524963c0.4518433,0.8876038,0.921524,1.7511024,1.4084778,2.5911331
			c0.4875946,0.8402977,1.0004425,1.6797867,1.5397949,2.5200653v3.1265945h1.8541412v-3.1506271
			C141.4858398,63.7110138,141.9968262,62.8745346,142.4813232,62.0432663 M131.5931549,61.0205231h3.6602173V59.463562h-5.5155945
			v8.237793h1.8553772v-3.4004745h3.2558441v-1.5569572h-3.2558441V61.0205231L131.5931549,61.0205231z M125.863678,67.701355
			h1.8535385v-8.237793h-1.8535385V67.701355L125.863678,67.701355z M118.9334488,67.701355h5.5032501v-1.5927887H120.78759
			V59.463562h-1.8541412V67.701355L118.9334488,67.701355z M117.5668716,62.138073
			c0-0.9827042-0.3297729-1.6903114-0.9874725-2.1215973c-0.6570892-0.4322128-1.6008072-0.6480141-2.8286819-0.6480141
			c-0.3408813,0-0.7372284,0.0156364-1.1884384,0.0475502c-0.4518127,0.0312996-0.8802109,0.0869751-1.2839661,0.1664391v8.1189041
			h1.8541489v-2.7581558h0.5831146c1.2359009,0,2.1863861-0.219696,2.8527222-0.6591263
			C117.2340164,63.8433876,117.5668716,63.1286087,117.5668716,62.138073 M115.6523132,62.1257401
			c0,0.4758492-0.1621017,0.8005791-0.4869461,0.9751434c-0.3254623,0.1742706-0.8081131,0.2615395-1.449791,0.2615395h-0.5831146
			v-2.3777046c0.0955582-0.0072174,0.2083359-0.0153694,0.3390121-0.0234947
			c0.1306839-0.0078049,0.2632065-0.0123329,0.398819-0.0123329c0.2681351,0,0.5147018,0.0180855,0.7359848,0.0538902
			c0.2219162,0.035511,0.4105301,0.0990143,0.5646362,0.1902275c0.1547165,0.0911598,0.273674,0.2121544,0.3568878,0.3626595
			C115.6110153,61.7058601,115.6523132,61.8963814,115.6523132,62.1257401 M107.5819778,67.701355h1.8065109
			c-0.0319519-0.6501236-0.0698471-1.3435822-0.1125641-2.0803604c-0.0439377-0.7374115-0.0921478-1.4724045-0.1433105-2.2049522
			c-0.0517731-0.7332039-0.1107635-1.4389992-0.1781387-2.116188c-0.0674362-0.6775284-0.1408539-1.2896919-0.2197418-1.8362923
			h-1.6879272c-0.1432343,0.2612495-0.3081818,0.5842171-0.4947739,0.9688797
			c-0.1871948,0.3840256-0.3810577,0.7999916-0.5839233,1.247551c-0.202858,0.4481468-0.4033127,0.9056396-0.6019058,1.3733635
			c-0.1986618,0.4674072-0.3852539,0.907402-0.5598297,1.3191566c-0.1751785-0.4117546-0.3617706-0.8517494-0.5604248-1.3191566
			c-0.1986771-0.4677238-0.3996811-0.9252167-0.6025467-1.3733635c-0.201683-0.4475594-0.3967056-0.8635254-0.5832901-1.247551
			c-0.1872101-0.3846626-0.3515396-0.7076302-0.4948502-0.9688797h-1.7712402
			c-0.0788422,0.5466003-0.1523209,1.1587639-0.2194519,1.8362923c-0.0676651,0.6771889-0.1269608,1.3829842-0.1787491,2.116188
			c-0.0511551,0.7325478-0.0992966,1.4675407-0.1423798,2.2049522c-0.043663,0.7367783-0.0812531,1.4302368-0.1128693,2.0803604
			h1.8068008c0.0234985-0.8011932,0.0553436-1.6728668,0.0948105-2.6155319
			c0.0397415-0.9432068,0.0992966-1.8937073,0.1787491-2.8529434c0.1427002,0.3328819,0.3016129,0.7015877,0.4767914,1.1055107
			c0.1745529,0.403923,0.3473434,0.8084145,0.5188828,1.2123375c0.1703186,0.4044876,0.3358917,0.7909622,0.4947891,1.1593246
			c0.1582947,0.3678284,0.2937851,0.6832275,0.4050903,0.9450912h1.2954407
			c0.1119385-0.2618637,0.2468185-0.5772629,0.4057388-0.9450912c0.1588974-0.3683624,0.3244705-0.754837,0.4947739-1.1593246
			c0.1709976-0.403923,0.3443222-0.8084145,0.5188904-1.2123375c0.1745605-0.403923,0.3340836-0.7726288,0.4767914-1.1055107
			c0.0788345,0.9592361,0.1390533,1.9097366,0.1781464,2.8529434
			C107.5260239,66.0284882,107.5578766,66.9001617,107.5819778,67.701355 M96.2651672,67.701355h1.8543396v-8.237793h-1.8543396
			V67.701355L96.2651672,67.701355z M94.4827728,65.4427872c0-0.3966599-0.0517807-0.7331619-0.1549606-1.0106583
			c-0.1029282-0.276886-0.2594452-0.5188942-0.468956-0.7253723c-0.2100754-0.2058411-0.4740295-0.386425-0.7909775-0.5405312
			c-0.3166428-0.1547165-0.6889572-0.3112221-1.1169281-0.4698296c-0.2064896-0.0713387-0.3942566-0.1402779-0.5652313-0.207653
			c-0.1700745-0.0671272-0.3205338-0.1430168-0.4511566-0.226078c-0.1306152-0.0833778-0.2317734-0.1763496-0.3030853-0.2793083
			c-0.0716171-0.102932-0.1074371-0.2299232-0.1074371-0.3804283c0-0.2531242,0.0975266-0.4418335,0.2916183-0.5646362
			c0.1941681-0.1224899,0.5128403-0.184185,0.9565353-0.184185c0.3963623,0,0.7350006,0.045742,1.0166931,0.1369514
			c0.2810898,0.0911598,0.536644,0.1959267,0.7665634,0.3148193l0.5351715-1.4621773
			c-0.2618484-0.142971-0.5947113-0.2735825-0.9986496-0.391861c-0.4042282-0.1188889-0.8839645-0.178772-1.4386826-0.178772
			c-0.4671097,0-0.8875504,0.0577812-1.2598724,0.1724358c-0.3723679,0.1152916-0.6892624,0.2793083-0.9504852,0.4933205
			c-0.2618332,0.2136993-0.4641495,0.4734268-0.6064758,0.7783356c-0.142395,0.3051758-0.2140274,0.6480141-0.2140274,1.0281258
			c0,0.380455,0.0671234,0.70401,0.2022324,0.9691734c0.1342697,0.2657242,0.3088379,0.4914627,0.5228424,0.6775055
			c0.2137146,0.186554,0.4553375,0.340683,0.7253342,0.4634628c0.2688065,0.1234169,0.5387955,0.2317619,0.8081665,0.3274956
			c0.6181793,0.2058945,1.053978,0.3978806,1.3074493,0.5760651c0.2534027,0.1781616,0.3803864,0.4021149,0.3803864,0.6711655
			c0,0.1270447-0.0198593,0.2426224-0.0592346,0.3455582c-0.0400696,0.1029358-0.111084,0.1919861-0.2140274,0.2672653
			c-0.1035385,0.0752106-0.2395859,0.1342621-0.4105148,0.1781387c-0.1700668,0.0439529-0.3858795,0.0656357-0.6477127,0.0656357
			c-0.5228348,0-0.9646225-0.054184-1.3252106-0.1607361c-0.3605957-0.1071396-0.6640015-0.2281342-0.909256-0.3629303
			l-0.52285,1.4748001c0.1104736,0.0631714,0.2471313,0.1306152,0.409996,0.2010269
			c0.1622162,0.0716019,0.3563232,0.1396637,0.5823669,0.2022858c0.2257233,0.0638046,0.4851761,0.1173477,0.7786407,0.1613312
			c0.2928543,0.0427017,0.6218262,0.064949,0.9863129,0.064949c1.085907,0,1.8979645-0.2118607,2.4373245-0.6362686
			C94.2134171,66.807457,94.4827728,66.2115021,94.4827728,65.4427872"/>
	</g>
</g>
<g id="PPL_Logo">
	<g>
		<linearGradient id="SVGID_1_" gradientUnits="userSpaceOnUse" x1="14.6298027" y1="31.6648312" x2="42.1869545" y2="31.6648312">
			<stop  offset="0.130341" style="stop-color:#007788"/>
			<stop  offset="0.2319807" style="stop-color:#008295"/>
			<stop  offset="0.5532796" style="stop-color:#00A1B8"/>
			<stop  offset="0.725187" style="stop-color:#00ADC6"/>
		</linearGradient>
		<path class="st1" d="M39.5167618,24.7356873c-1.3545189,1.5209751-2.8670883,2.910841-4.5276566,4.092289
			c-1.6760597,1.1914158-3.658947,2.7014122-5.8177872,2.7014122H14.6298027
			c0.2197065,1.6703796,0.7990255,3.7102547,1.7160015,5.2984962c1.3145027,2.2778816,3.1696301,4.0402832,5.1609268,5.06213
			c0.1367912,0.0668755,0.6287556,0.2759972,1.3753853,0.2478104c10.6822453-0.8948631,19.0904255-10.0769997,19.3048382-20.9485874
			C41.4216385,22.4038525,40.5309792,23.5971355,39.5167618,24.7356873z"/>
		<linearGradient id="SVGID_2_" gradientUnits="userSpaceOnUse" x1="33.0931587" y1="26.3909931" x2="17.2554493" y2="-1.0407244">
			<stop  offset="0.15338" style="stop-color:#007788"/>
			<stop  offset="0.2968677" style="stop-color:#008887"/>
			<stop  offset="0.5002714" style="stop-color:#009986"/>
			<stop  offset="0.723135" style="stop-color:#00A385"/>
			<stop  offset="1" style="stop-color:#00A685"/>
		</linearGradient>
		<path class="st2" d="M41.0160942,14.1131573C38.1265068,5.8908172,30.3041859,0,21.1033649,0
			C15.217452,0,9.8968439,2.4154501,6.0687938,6.3067183c1.7996173-0.5527701,3.7733178-0.8477626,5.8349175-0.8310237
			c3.1065683,0.0239792,6.7381897,0.6447167,9.3460197,2.4462805c1.50844,1.0420113,2.8016891,2.4747753,4.162672,3.6996679
			c1.1537323,1.0381956,2.3006134,2.0843325,3.4559021,3.1209717c0.2353554,0.2109861,0.4702454,0.4231415,0.7048225,0.6349068
			c0.6378651,0.5755033,1.1594925,1.7521267,1.1594925,2.6093082v9.7281322
			c2.2067223-1.0963535,4.3697662-2.7773972,6.2568932-4.8903027c1.7190361-1.9258194,3.0461502-4.0691662,3.9002991-6.1615181
			C41.3468208,15.4033689,41.1092072,14.4118862,41.0160942,14.1131573z"/>
		<linearGradient id="SVGID_3_" gradientUnits="userSpaceOnUse" x1="9.043437" y1="41.5304031" x2="9.043437" y2="8.8847952">
			<stop  offset="0.421098" style="stop-color:#007788"/>
			<stop  offset="1" style="stop-color:#364966"/>
		</linearGradient>
		<path class="st3" d="M11.2315893,30.4619198c-0.0052938-0.0494385-0.0147924-12.47509-0.0147924-12.47509
			c0-0.8571815,0.5226402-2.0338049,1.1601944-2.6093082l5.7098827-5.1659098
			c-1.8319263-0.8412228-3.963129-1.3061724-6.2101784-1.3263369c-4.1710014-0.0315313-7.9413614,1.4940367-9.9622421,3.8718824l0,0
			c0,0-0.0079412,0.0091085-0.022033,0.0265484c-0.069213,0.0851736-0.2949924,0.3847589-0.5508238,0.9488964
			c-0.1996201,0.4409704-0.5934105,1.8319273-0.5934105,1.8319273C0.2626826,17.3341713,0,19.1953735,0,21.1208038
			c0,9.8033409,6.6785536,18.0259895,15.7253771,20.4095993c-0.8393536-0.9077911-1.6000748-1.9265976-2.2467375-3.0473213
			C12.0113068,35.942131,11.24716,33.1549225,11.2315893,30.4619198z"/>
		<path class="st4" d="M49.268795,12.772728c0-2.489645,2.0246162-4.5143414,4.5142632-4.5143414h3.086792
			c1.95821,0.0665655,3.7505836-0.0330105,5.6426163,0.8629446c2.4230804,1.1617517,3.5517426,3.8505497,3.5517426,6.4393826
			c0,2.4561682-0.8633347,4.7796717-3.086792,6.1405764c-1.7593689,1.0952644-3.9502068,1.3940716-6.0744781,1.3940716h-3.1533585
			v8.3982906H49.268795V12.772728z M53.7495804,19.1124573h3.3856773c2.1907616,0,4.3481216-0.8632565,4.3481216-3.4520884
			c0-3.0206947-1.6593208-3.4521666-4.5138741-3.4521666h-2.6557884c-0.5641365,0-0.5641365,0.5310478-0.5641365,1.0955744
			V19.1124573z"/>
		<path class="st4" d="M142.6558838,22.0612907c0-4.80583-2.8715973-8.2568283-7.8432617-8.2568283
			c-5.2871246,0-8.0135269,4.0436306-8.0135269,9.0490818c0,5.3555641,3.5285416,8.9791679,8.8445511,8.9791679
			c2.0330353,0,4.0744629-0.4827785,5.9387054-1.2765102l-1.3114777-3.209259
			c-1.2476959,0.5504341-2.9682159,0.8933849-4.388443,0.8933849c-2.5554352,0-4.349762-1.2400742-4.6272278-3.9022465h11.1543579
			C142.5197906,23.5785294,142.6558838,22.81703,142.6558838,22.0612907z M131.2552032,21.0866261
			c0.10495-2.0672836,1.3814545-3.8680687,3.5947113-3.8680687c2.3112793,0,3.4851837,1.6962261,3.521698,3.8680687H131.2552032z"/>
		<path class="st4" d="M94.2375793,22.0612907c0-4.80583-2.8716736-8.2568283-7.8432617-8.2568283
			c-5.2871323,0-8.0124435,4.0436306-8.0124435,9.0490818c0,5.3555641,3.5274506,8.9791679,8.8442459,8.9791679
			c2.0322495,0,4.0744629-0.4827785,5.9379196-1.2765102l-1.3115387-3.209259
			c-1.2476349,0.5504341-2.9682236,0.8933849-4.3884583,0.8933849c-2.5553513,0-4.349678-1.2400742-4.6271515-3.9022465h11.1551361
			C94.102272,23.5785294,94.2375793,22.81703,94.2375793,22.0612907z M82.8368912,21.0866261
			c0.1048737-2.0672836,1.3822403-3.8680687,3.5946426-3.8680687c2.3113556,0,3.4852524,1.6962261,3.5225449,3.8680687H82.8368912z"
			/>
		<path class="st4" d="M77.3257751,18.240015c-0.7344055-0.4409714-1.5061035-0.5512142-2.0573196-0.5512142
			c-1.027916,0-2.1668625,0.4774857-3.3423157,1.542696v12.3054428h-4.4078369v-17.374424h4.4078369v1.6396255
			c1.7996216-1.5791321,2.9385605-2.0436926,4.5914993-2.0436926c0.8446503,0,1.7630997,0.2573891,2.4241714,0.7347956
			L77.3257751,18.240015z"/>
		<path class="st4" d="M153.9707031,18.240015c-0.7344055-0.4409714-1.5061035-0.5512142-2.0566101-0.5512142
			c-1.0286255,0-2.167572,0.4774857-3.3430176,1.542696v12.3054428H144.16362v-17.374424h4.4074554v1.6396255
			c1.8003998-1.5791321,2.9385529-2.0436926,4.5914917-2.0436926c0.8446503,0,1.7631073,0.2573891,2.4245605,0.7347956
			L153.9707031,18.240015z"/>
		<path class="st4" d="M122.7937622,12.7533426c1.398201,0,2.5318451-1.1332569,2.5318451-2.531065
			s-1.1336441-2.5310645-2.5318451-2.5310645c-1.3974152,0-2.530983,1.1332564-2.530983,2.5310645
			S121.396347,12.7533426,122.7937622,12.7533426z M120.5903931,31.5369396h4.4075241v-17.374424h-4.4075241V31.5369396z"/>
		<path class="st4" d="M113.8975143,20.8912086c0-1.3598137-0.1634979-3.2164211-1.9919968-3.1521912
			c-1.0895004,0.0349579-2.0201797,0.9294338-2.718071,1.6931896v12.1047325h-4.1406403v-10.645731
			c0-1.3248577-0.1353149-3.1521912-1.8916397-3.1521912c-1.0301819,0-2.1919327,0.7333164-2.9149704,1.3958626v12.4020596
			h-4.2219925V14.1552763h4.1170425v1.1647882c0.8279877-0.8286886,2.1569748-1.5281372,3.3514252-1.5281372
			c1.7920685-0.034256,3.2822113,0.6994486,4.3466415,1.9904404c1.1579361-1.0606184,2.6792984-2.0246964,4.3755264-2.0246964
			c3.648674,0,5.8695602,2.853384,5.903038,6.5389595v11.2403088h-4.2143631V20.8912086z"/>
		<g>
			<g>
				<path class="st4" d="M133.8569489,37.5995827h1.7198181l-3.3643494,9.2795334
					c-0.5687256,1.4711456-1.5883179,1.8498344-3.334671,1.8498344h-0.3353271v-1.6027222
					c1.3989716,0.0136223,1.8642426,0,2.2292175-1.004406l0.3505096-0.9633026l-3.3233185-7.5589371h2.0254669l2.171463,5.1290092
					L133.8569489,37.5995827z"/>
				<path class="st4" d="M104.653717,34.9096947h1.9889603v8.0439758c0,0.250145,0.2060852,0.4714088,0.4561539,0.4714088h3.4769211
					v1.7973595h-3.8889313c-1.1199417,0-2.0331039-0.9131584-2.0331039-2.0186234V34.9096947z"/>
				<path class="st4" d="M123.7624359,44.6126785l-0.8401337-3.3742332l-0.8249512,3.3445702
					c-0.1475296,0.5451431-0.6333466,0.8690186-1.1784821,0.8834229c-0.5595474,0-1.1199493-0.3238792-1.2666321-0.8537598
					l-2.1220093-7.0130959h1.8862686l1.5168457,5.2301407l1.3556137-5.2301407h1.3404236l1.4438248,5.4073372l1.5319519-5.4073372
					h1.7532883l-2.1508942,7.0130959c-0.1764221,0.5595436-0.6477509,0.8537598-1.2225571,0.8537598
					C124.4253693,45.452034,123.9091187,45.1722221,123.7624359,44.6126785z"/>
				<g>
					<path class="st4" d="M150.3874359,45.4086685c-1.2598572,0-2.1646118-0.3063583-2.8260651-0.7101135l0.6295319-1.4210091
						c0.5649261,0.3877945,1.2917786,0.6781921,2.0513306,0.6781921c0.7906952,0,1.307724-0.2903976,1.307724-0.8074303
						c0-1.3731308-3.5202026-0.8560944-3.5202026-3.4555931c0-1.3244705,1.0491638-2.2611427,2.8906708-2.2611427
						c0.9526367,0,1.6467896,0.1451988,2.2444,0.3877945v1.6148682c-0.6622314-0.2584763-1.3563843-0.5010719-2.1638184-0.5010719
						c-0.6781921,0-1.081955,0.2098961-1.081955,0.6622314c0,1.2111893,3.5848389,0.8074341,3.5848389,3.4396324
						C153.503891,44.7472153,152.0023041,45.4086685,150.3874359,45.4086685z"/>
				</g>
				<path class="st4" d="M116.0080872,45.2239189l-0.3208466-0.6735992
					c-0.4972534,0.4492989-1.1860428,0.8340569-2.1965179,0.8340569c-1.3951569,0-2.4846649-0.945858-2.4846649-2.436779
					c0-1.5715828,1.2340012-2.4216003,3.1743011-2.4854431l1.3464279-0.0478821c0-0.0646172,0-0.1444969,0-0.192379
					c0-0.9138603-0.6408997-1.2826614-1.4430466-1.2826614c-0.8332825,0-1.4749603,0.2722588-1.9554749,0.5611038
					l-0.6257248-1.2027817c1.0103989-0.6728249,1.9562607-0.8332825,2.9659653-0.8332825
					c1.8763809,0,3.0145416,0.7694397,3.0145416,2.7576218v2.9978828c0,1.0902824,0.0319977,1.6513824,0.1445007,2.0041428
					H116.0080872z M115.5267868,41.7448158l-1.0902023,0.0319214c-1.0416183,0.0319176-1.5069656,0.3846779-1.5069656,1.0263596
					c0,0.6250191,0.4326477,1.0575829,1.2347031,1.0575829c0.672905,0,1.1062393-0.2562218,1.3624649-0.4805222V41.7448158z"/>
				<path class="st4" d="M142.2065887,41.080246c0-2.1105728-1.2613373-3.6258621-3.4449158-3.6258621
					c-2.3219604,0-3.5186615,1.776104-3.5186615,3.9741058c0,2.3516083,1.549469,3.9429665,3.8835602,3.9429665
					c0.8926086,0,1.7898102-0.2121582,2.6085968-0.5611038l-0.5762787-1.4088631
					c-0.548172,0.2417412-1.3039093,0.3923111-1.9273682,0.3923111c-1.1222076,0-1.9098663-0.5443611-2.0315552-1.7137413h4.8978577
					C142.1464844,41.7462959,142.2065887,41.412529,142.2065887,41.080246z M137.1999664,40.6521988
					c0.0456238-0.9077873,0.60672-1.6984825,1.5784302-1.6984825c1.0149994,0,1.5304718,0.7450714,1.5464325,1.6984825H137.1999664z
					"/>
				<path class="st4" d="M147.1751404,39.4023132c-0.3223267-0.1939354-0.6614532-0.2418175-0.9031982-0.2418175
					c-0.4516449,0-0.9519348,0.2091217-1.4681854,0.6774178v5.4035225h-1.9357147v-7.629631h1.9357147v0.720005
					c0.7907715-0.6934547,1.2909851-0.8979034,2.0171356-0.8979034c0.3702087,0,0.7739563,0.1132812,1.0643616,0.323101
					L147.1751404,39.4023132z"/>
			</g>
			<g>
				<path class="st4" d="M65.405014,37.4642715c2.1163254,0,3.5605392,1.5297737,3.5605392,3.9034157
					s-1.4298096,3.9034119-3.5605392,3.9034119c-2.1303482,0-3.5889587-1.5297699-3.5889587-3.9034119
					S63.2746658,37.4642715,65.405014,37.4642715z M65.3906097,43.6554527c1.0297852,0,1.7019043-0.8865356,1.7019043-2.2877655
					c0-1.4012337-0.6865234-2.2877693-1.7019043-2.2877693c-1.0149994,0-1.7015991,0.8865356-1.7015991,2.2877693
					C63.6890106,42.7689171,64.3756104,43.6554527,65.3906097,43.6554527z"/>
				<path class="st4" d="M72.6598434,37.5638466c1.2772903,0.0281868,2.3463211,0.4721909,2.9985886,1.5548439
					c0.4021988,0.7078552,0.5414047,1.5403595,0.5414047,2.3455353c-0.028183,0.929821-0.181015,1.8049889-0.7633667,2.5546532
					c-0.6249466,0.7214851-1.5274429,1.1236801-2.5401764,1.1236801c-0.485817,0-0.9442978-0.0691338-1.4020157-0.3603897v3.5255051
					h-1.7630997v-8.9806442c0-0.9717102,0.7773819-1.7631836,1.748703-1.7631836H72.6598434z M71.494278,43.3938599
					c0.4159012,0.0973206,0.8051758,0.1802368,1.2354889,0.1802368c0.5413208-0.0274048,1.0264359-0.1802368,1.3320923-0.66605
					c0.250145-0.4166794,0.3329849-0.9580078,0.3192825-1.443821c0-0.5968361-0.0555115-1.4293404-0.4995193-1.8878288
					c-0.3610916-0.3603897-0.9161148-0.4440041-1.3883057-0.4440041h-0.5831375
					c-0.2220383,0-0.4159012,0.1801567-0.4159012,0.402977V43.3938599z"/>
				<path class="st4" d="M49.268795,37.0012665c0-1.0933151,0.8891029-1.9821091,1.9824181-1.9821091h1.3556099
					c0.8599091,0.0288849,1.6472549-0.0151787,2.4778938,0.3786087c1.0644302,0.5101852,1.559742,1.6909332,1.559742,2.8276138
					c0,1.0788383-0.3789978,2.0991287-1.3556099,2.696743c-0.7724724,0.4812965-1.734684,0.6120949-2.6675415,0.6120949h-1.3844948
					v3.688221H49.268795V37.0012665z M51.2368126,39.7855186h1.4867935c0.9617424,0,1.9094734-0.3793869,1.9094734-1.5160713
					c0-1.326725-0.7291145-1.5160675-1.982502-1.5160675h-1.1662674c-0.2474976,0-0.2474976,0.2334061-0.2474976,0.4812965
					V39.7855186z"/>
				<path class="st4" d="M61.5901947,39.4023132c-0.3227081-0.1939354-0.6614532-0.2418175-0.9031944-0.2418175
					c-0.4520264,0-0.951931,0.2091217-1.4681854,0.6774178v5.4035225h-1.9357109v-7.629631h1.9357109v0.720005
					c0.7903824-0.6934547,1.2905998-0.8979034,2.0163612-0.8979034c0.3709793,0,0.7743454,0.1132812,1.0647469,0.323101
					L61.5901947,39.4023132z"/>
				<path class="st4" d="M83.7917786,41.080246c0-2.1105728-1.2605438-3.6258621-3.4441452-3.6258621
					c-2.3215561,0-3.519043,1.776104-3.519043,3.9741058c0,2.3516083,1.549469,3.9429665,3.8839493,3.9429665
					c0.8926086,0,1.7898102-0.2121582,2.6079102-0.5611038l-0.5755844-1.4088631
					c-0.548172,0.2417412-1.3039093,0.3923111-1.9273758,0.3923111c-1.1222,0-1.9106369-0.5443611-2.0322495-1.7137413h4.8986359
					C83.7325363,41.7462959,83.7917786,41.412529,83.7917786,41.080246z M78.7852402,40.6521988
					c0.0463257-0.9077873,0.6067276-1.6984825,1.5783539-1.6984825c1.0149994,0,1.5312576,0.7450714,1.5472107,1.6984825H78.7852402
					z"/>
				<path class="st4" d="M88.7611084,39.4023132c-0.322319-0.1939354-0.6614532-0.2418175-0.9031982-0.2418175
					c-0.4516373,0-0.9519272,0.2091217-1.4681854,0.6774178v5.4035225h-1.9357071v-7.629631h1.9357071v0.720005
					c0.7907715-0.6934547,1.2902908-0.8979034,2.0163651-0.8979034c0.3709793,0,0.7747345,0.1132812,1.0651321,0.323101
					L88.7611084,39.4023132z"/>
				<path class="st4" d="M101.2156448,37.5995827h1.7198105l-3.3643417,9.2795334
					c-0.5687332,1.4711456-1.5882416,1.8498344-3.3346863,1.8498344h-0.3353195v-1.6027222
					c1.3989792,0.0136223,1.8643112,0,2.2292175-1.004406l0.3497314-0.9633026l-3.322464-7.5589371h2.0246201l2.1714478,5.1290092
					L101.2156448,37.5995827z"/>
				<g>
					<path class="st4" d="M92.8652344,45.3714561c-1.3540573,0-1.8855743-0.7572975-1.8855743-1.789032v-4.5443153h-1.3532715
						v-1.449894H90.97966v-2.3364258h1.9334488v2.3364258h1.9981537v1.449894h-1.9981537v3.8357582
						c0,0.5960579,0.2258606,0.8697166,0.7253799,0.8697166c0.4835587,0,0.9830704-0.2249985,1.2727737-0.4188576
						l0.5154724,1.2248154C94.6375198,45.113678,93.6065674,45.3714561,92.8652344,45.3714561z"/>
				</g>
			</g>
		</g>
	</g>
</g>
</svg>
