<?xml version="1.0" encoding="UTF-8"?>
<svg id="Layer_1" xmlns="http://www.w3.org/2000/svg" version="1.1" viewBox="0 0 204 52">
  <!-- Generator: Adobe Illustrator 29.1.0, SVG Export Plug-In . SVG Version: 2.1.0 Build 142)  -->
  <defs>
    <style>
      .st0 {
        fill: #4f4b49;
      }

      .st1 {
        fill: #4d99d6;
      }
    </style>
  </defs>
  <path class="st1" d="M16.3,33.9l11.2,11.2,11.2-11.2c6.2-6.2,6.2-16.2,0-22.4-6.2-6.2-16.3-6.2-22.5,0-6.2,6.2-6.2,16.2,0,22.4"/>
  <path class="st0" d="M55.6,36.9c-.7-.2-1.4-.4-2-.8-.6-.3-1.2-.7-1.7-1.2-.5-.5-.9-1-1.2-1.6l3-2.2c.2.4.5.7.8,1,.3.3.6.6.9.8s.7.4,1.1.5c.4.1.8.2,1.3.2s.8,0,1.1-.1c.3,0,.6-.2.8-.3.2-.1.4-.3.5-.5.1-.2.2-.4.2-.6s0-.5-.2-.7c-.1-.2-.3-.4-.6-.6s-.7-.4-1.1-.6c-.5-.2-1.1-.4-1.8-.6-.9-.3-1.7-.6-2.3-.9-.7-.3-1.2-.7-1.7-1.1-.5-.4-.8-.9-1-1.5-.2-.5-.4-1.2-.4-1.9s.2-1.4.5-2.1c.3-.6.8-1.2,1.4-1.6.6-.5,1.3-.8,2.1-1.1.8-.3,1.7-.4,2.6-.4s1.4,0,2,.2,1.2.4,1.8.7c.5.3,1,.7,1.5,1.1s.8.9,1,1.4l-2.9,2.1c-.2-.3-.4-.6-.6-.8-.2-.2-.5-.5-.8-.6s-.6-.3-.9-.4-.7-.2-1.1-.2-.7,0-1,.1c-.3,0-.6.2-.8.3-.2.1-.4.3-.5.5-.1.2-.2.4-.2.7s0,.4.2.6c.1.2.3.4.6.5.3.2.7.4,1.1.5.5.2,1,.4,1.7.6.8.3,1.6.6,2.3.9.7.3,1.3.7,1.8,1.1.5.4.9.9,1.1,1.5.3.6.4,1.2.4,2s-.2,1.4-.5,2-.8,1.2-1.4,1.6-1.3.8-2.1,1.1c-.8.3-1.8.4-2.7.4s-1.5,0-2.2-.3"/>
  <path class="st0" d="M72.5,23.5c-.6.3-1.1.6-1.5,1.1s-.7,1-1,1.6-.4,1.3-.4,2,.1,1.4.4,2,.6,1.1,1,1.6c.4.5.9.8,1.5,1.1s1.2.4,1.9.4,1.3-.1,1.9-.4c.6-.3,1.1-.6,1.5-1.1s.7-1,1-1.6.4-1.3.4-2-.1-1.4-.4-2-.6-1.1-1-1.6-.9-.8-1.5-1.1c-.6-.3-1.2-.4-1.9-.4s-1.3.1-1.9.4M78.1,19.8c1.1.5,2.1,1.1,2.9,1.9.8.8,1.4,1.8,1.9,2.9s.7,2.3.7,3.5-.2,2.5-.7,3.6-1.1,2-1.9,2.9c-.8.8-1.8,1.4-2.9,1.9s-2.3.7-3.7.7-2.5-.2-3.6-.7c-1.1-.5-2.1-1.1-2.9-1.9s-1.5-1.8-1.9-2.9-.7-2.3-.7-3.5.2-2.4.7-3.5,1.1-2.1,1.9-2.9c.8-.8,1.8-1.4,2.9-1.9s2.3-.7,3.6-.7,2.6.2,3.7.7"/>
  <path class="st0" d="M100.3,23.5c-.6.3-1.1.6-1.5,1.1s-.7,1-1,1.6-.4,1.3-.4,2,.1,1.4.4,2,.6,1.1,1,1.6c.4.5.9.8,1.5,1.1s1.2.4,1.9.4,1.3-.1,1.9-.4,1.1-.6,1.5-1.1.7-1,1-1.6.4-1.3.4-2-.1-1.4-.4-2-.6-1.1-1-1.6-.9-.8-1.5-1.1-1.2-.4-1.9-.4-1.3.1-1.9.4M105.9,19.8c1.1.5,2.1,1.1,2.9,1.9.8.8,1.4,1.8,1.9,2.9s.7,2.3.7,3.5-.2,2.5-.7,3.6-1.1,2-1.9,2.9c-.8.8-1.8,1.4-2.9,1.9s-2.3.7-3.7.7-2.5-.2-3.6-.7c-1.1-.5-2.1-1.1-2.9-1.9s-1.5-1.8-1.9-2.9-.7-2.3-.7-3.5.2-2.4.7-3.5,1.1-2.1,1.9-2.9c.8-.8,1.8-1.4,2.9-1.9s2.3-.7,3.6-.7,2.6.2,3.7.7"/>
  <path class="st0" d="M117.6,28.2c0,.8.1,1.5.4,2.1.2.6.6,1.2,1,1.6s.9.8,1.5,1c.6.2,1.1.4,1.8.4s1.2-.1,1.7-.4c.6-.2,1-.6,1.5-1,.4-.4.7-1,1-1.6.2-.6.4-1.3.4-2.1s-.1-1.5-.4-2.1c-.2-.6-.6-1.2-1-1.6-.4-.5-.9-.8-1.5-1s-1.1-.4-1.7-.4-1.2.1-1.8.4c-.6.2-1,.6-1.5,1-.4.4-.7,1-1,1.6-.2.6-.4,1.3-.4,2.1M113.4,19.5h4.1v2.4c.3-.5.7-.9,1.1-1.3s.9-.7,1.4-.9c.5-.2,1-.4,1.5-.5.5-.1,1-.2,1.5-.2,1.1,0,2.2.2,3.2.7,1,.4,1.8,1.1,2.6,1.9.7.8,1.3,1.8,1.7,2.9.4,1.1.6,2.3.6,3.6s-.2,2.5-.6,3.6-1,2.1-1.7,2.9-1.6,1.4-2.6,1.9c-1,.5-2.1.7-3.2.7s-1,0-1.5-.2c-.5-.1-1-.3-1.5-.5-.5-.2-.9-.5-1.3-.8-.4-.3-.7-.7-1-1.1v8.8h-4.4v-24h0Z"/>
  <path class="st0" d="M137.7,22.5c.2-.5.5-1,.8-1.4.3-.4.7-.8,1.1-1.1.4-.3.9-.5,1.4-.7.5-.2,1-.2,1.6-.2s.4,0,.6,0c.2,0,.3,0,.5.1v4.2c0,0-.2,0-.4-.1s-.4,0-.5,0c-1.5,0-2.7.5-3.6,1.6s-1.3,2.5-1.3,4.3v7.6h-4.4v-17.2h4.3v3h0Z"/>
  <path class="st0" d="M151.9,23c-.5.2-.9.4-1.3.7-.4.3-.7.7-.9,1.1s-.4.9-.5,1.5h8.1c0-.6-.2-1-.4-1.5-.2-.4-.5-.8-.8-1.1s-.7-.5-1.2-.7c-.5-.2-.9-.2-1.5-.2s-1,0-1.5.2M156.8,19.7c1,.4,1.9,1,2.6,1.7.7.7,1.3,1.5,1.6,2.5.4,1,.6,2,.6,3.2s0,.8,0,1.1c0,.4-.1.7-.2,1h-12.1c0,.7.3,1.3.6,1.8.3.5.7.9,1.1,1.3.5.3,1,.6,1.6.8.6.2,1.2.3,1.8.3,1,0,1.9-.2,2.6-.6.8-.4,1.4-.8,1.9-1.4l2.4,2.9c-1.1,1-2.2,1.7-3.3,2.2-1.2.4-2.4.7-3.9.7s-2.7-.2-3.9-.7c-1.2-.5-2.2-1.1-3-1.9s-1.5-1.8-1.9-2.9c-.5-1.1-.7-2.3-.7-3.5s.2-2.4.7-3.5,1-2.1,1.8-2.9c.8-.8,1.7-1.5,2.8-1.9,1.1-.5,2.3-.7,3.6-.7s2.3.2,3.3.6"/>
  <path class="st0" d="M168.2,36.9c-.7-.2-1.4-.4-2-.8s-1.2-.7-1.7-1.2-.9-1-1.2-1.6l3-2.2c.2.4.5.7.8,1,.3.3.6.6.9.8.3.2.7.4,1.1.5.4.1.8.2,1.3.2s.8,0,1.1-.1c.3,0,.6-.2.8-.3.2-.1.4-.3.5-.5.1-.2.2-.4.2-.6s0-.5-.2-.7-.3-.4-.6-.6-.7-.4-1.1-.6c-.5-.2-1.1-.4-1.8-.6-.9-.3-1.7-.6-2.3-.9s-1.2-.7-1.7-1.1-.8-.9-1-1.5c-.2-.5-.4-1.2-.4-1.9s.2-1.4.5-2.1c.3-.6.8-1.2,1.4-1.6.6-.5,1.3-.8,2.1-1.1.8-.3,1.7-.4,2.6-.4s1.4,0,2,.2,1.2.4,1.8.7c.5.3,1,.7,1.5,1.1s.8.9,1,1.4l-2.9,2.1c-.2-.3-.4-.6-.6-.8-.2-.2-.5-.5-.8-.6-.3-.2-.6-.3-.9-.4-.3-.1-.7-.2-1.1-.2s-.7,0-1,.1c-.3,0-.6.2-.8.3-.2.1-.4.3-.5.5-.1.2-.2.4-.2.7s0,.4.2.6c.1.2.3.4.6.5.3.2.7.4,1.1.5.5.2,1,.4,1.7.6.8.3,1.6.6,2.3.9.7.3,1.3.7,1.8,1.1.5.4.9.9,1.1,1.5.3.6.4,1.2.4,2s-.2,1.4-.5,2-.8,1.2-1.4,1.6-1.3.8-2.1,1.1-1.8.4-2.7.4-1.5,0-2.2-.3"/>
  <path class="st0" d="M183.4,36.9c-.7-.2-1.4-.4-2-.8s-1.2-.7-1.7-1.2c-.5-.5-.9-1-1.2-1.6l3-2.2c.2.4.5.7.8,1,.3.3.6.6.9.8.3.2.7.4,1.1.5.4.1.8.2,1.3.2s.8,0,1.1-.1c.3,0,.6-.2.8-.3.2-.1.4-.3.5-.5.1-.2.2-.4.2-.6s0-.5-.2-.7-.3-.4-.6-.6-.7-.4-1.1-.6c-.5-.2-1.1-.4-1.8-.6-.9-.3-1.7-.6-2.3-.9s-1.2-.7-1.7-1.1-.8-.9-1-1.5c-.2-.5-.4-1.2-.4-1.9s.2-1.4.5-2.1c.3-.6.8-1.2,1.4-1.6.6-.5,1.3-.8,2.1-1.1.8-.3,1.7-.4,2.6-.4s1.4,0,2,.2,1.2.4,1.8.7c.5.3,1,.7,1.5,1.1s.8.9,1,1.4l-2.9,2.1c-.2-.3-.4-.6-.6-.8-.2-.2-.5-.5-.8-.6s-.6-.3-.9-.4c-.3-.1-.7-.2-1.1-.2s-.7,0-1,.1c-.3,0-.6.2-.8.3-.2.1-.4.3-.5.5-.1.2-.2.4-.2.7s0,.4.2.6c.1.2.3.4.6.5.3.2.7.4,1.1.5.5.2,1,.4,1.7.6.8.3,1.6.6,2.3.9.7.3,1.3.7,1.8,1.1.5.4.9.9,1.1,1.5.3.6.4,1.2.4,2s-.2,1.4-.5,2-.8,1.2-1.4,1.6-1.3.8-2.1,1.1-1.8.4-2.7.4-1.5,0-2.2-.3"/>
  <rect class="st0" x="86.1" y="12.8" width="4.3" height="24"/>
</svg>