<svg xmlns="http://www.w3.org/2000/svg" xmlns:xlink="http://www.w3.org/1999/xlink" viewBox="0 0 480 480"><defs><style>.cls-1{fill:none;}.cls-2{isolation:isolate;}.cls-3{clip-path:url(#clip-path);}.cls-4{fill:#435062;}.cls-5{mix-blend-mode:multiply;opacity:0.7;}.cls-6{clip-path:url(#clip-path-3);}.cls-7{clip-path:url(#clip-path-4);}.cls-8{fill:#fff;}.cls-9{fill:#9a9faa;}</style><clipPath id="clip-path" transform="translate(-0.15 0)"><rect class="cls-1" width="480.15" height="480"/></clipPath><clipPath id="clip-path-3" transform="translate(-0.15 0)"><rect class="cls-1" x="-25.23" y="-19.62" width="530.46" height="309.47"/></clipPath><clipPath id="clip-path-4" transform="translate(-0.15 0)"><rect class="cls-1" width="480" height="287.04"/></clipPath></defs><g class="cls-2"><g id="Layer_1" data-name="Layer 1"><g class="cls-3"><polygon class="cls-4" points="0 0 0 480 240 480 480 480 480 0 0 0"/><g class="cls-3"><path class="cls-8" d="M108.93,336.66c-.79-2.8-5.23-2.54-7.5-2.81l-14.32-1.8c-2-4.35-4-7.56-6-12-1-2.13-2-7-5.23-6.89s-4.19,5-5.18,7.13c-2,4.41-3.75,7.76-5.76,12.11l-13.72,2.32c-2.17.37-6.72.29-7.21,3.22-.43,2.54,3.4,4.81,4.95,6.21q4.71,4.32,9.44,8.62c-1,4.47-1.94,10-2.92,14.35-.44,2-2.35,6.33,0,7.94s6.09-1.92,8-3c4.16-2.47,8.56-5.7,13.15-7.32,4,2.11,8.48,5.35,12.48,7.34,1.82.91,5.9,4.09,8.1,2.34,2-1.62.09-5.49-.39-7.33-1.12-4.3-2.23-9.73-3.34-14.16,3.42-3.21,7.13-6.42,10.53-9.62,1.55-1.47,5.62-4,4.87-6.64" transform="translate(-0.15 0)"/><path class="cls-8" d="M191.48,336.66c-.79-2.8-5.24-2.54-7.5-2.81l-14.32-1.8c-2-4.35-4-7.56-6-12-.95-2.13-2-7-5.22-6.89s-4.19,5-5.18,7.13c-2,4.41-3.75,7.76-5.76,12.11l-13.72,2.32c-2.18.37-6.72.29-7.21,3.22-.43,2.54,3.4,4.81,4.94,6.21l9.45,8.62c-1,4.47-1.94,10-2.92,14.35-.45,2-2.35,6.33,0,7.94s6.09-1.92,8-3c4.16-2.47,8.56-5.7,13.15-7.32,4.05,2.11,8.47,5.35,12.48,7.34,1.82.91,5.9,4.09,8.1,2.34,2-1.62.09-5.49-.39-7.33-1.12-4.3-2.23-9.73-3.35-14.16,3.43-3.21,7.14-6.42,10.54-9.62,1.55-1.47,5.62-4,4.87-6.64" transform="translate(-0.15 0)"/><path class="cls-8" d="M274,336.66c-.79-2.8-5.24-2.54-7.5-2.81l-14.33-1.8c-2-4.35-4-7.56-5.95-12-.95-2.13-2-7-5.22-6.89s-4.19,5-5.18,7.13c-2,4.41-3.75,7.76-5.76,12.11l-13.72,2.32c-2.18.37-6.72.29-7.21,3.22-.43,2.54,3.4,4.81,4.94,6.21l9.45,8.62c-1,4.47-1.94,10-2.92,14.35-.45,2-2.35,6.33,0,7.94s6.09-1.92,8-3c4.16-2.47,8.56-5.7,13.15-7.32,4,2.11,8.47,5.35,12.48,7.34,1.82.91,5.9,4.09,8.1,2.34,2-1.62.08-5.49-.39-7.33-1.12-4.3-2.23-9.73-3.35-14.16,3.43-3.21,7.14-6.42,10.54-9.62,1.55-1.47,5.62-4,4.87-6.64" transform="translate(-0.15 0)"/><path class="cls-8" d="M356.58,336.66c-.79-2.8-5.24-2.54-7.5-2.81l-14.33-1.8c-2-4.35-4-7.56-5.95-12-.95-2.13-2-7-5.22-6.89s-4.19,5-5.19,7.13c-2,4.41-3.74,7.76-5.75,12.11l-13.72,2.32c-2.18.37-6.72.29-7.21,3.22-.43,2.54,3.4,4.81,4.94,6.21l9.45,8.62c-1,4.47-2,10-2.92,14.35-.45,2-2.36,6.33,0,7.94s6.09-1.92,8-3c4.16-2.47,8.56-5.7,13.15-7.32,4,2.11,8.47,5.35,12.48,7.34,1.82.91,5.9,4.09,8.1,2.34,2-1.62.08-5.49-.4-7.33-1.11-4.3-2.22-9.73-3.34-14.16,3.43-3.21,7.13-6.42,10.54-9.62,1.55-1.47,5.62-4,4.87-6.64" transform="translate(-0.15 0)"/><path class="cls-8" d="M439.13,336.66c-.79-2.8-5.24-2.54-7.5-2.81l-14.33-1.8c-2-4.35-4-7.56-5.95-12-1-2.13-2-7-5.22-6.89s-4.19,5-5.19,7.13c-2,4.41-3.74,7.76-5.75,12.11l-13.72,2.32c-2.18.37-6.72.29-7.21,3.22-.43,2.54,3.4,4.81,4.94,6.21l9.45,8.62c-1,4.47-1.95,10-2.92,14.35-.45,2-2.36,6.33,0,7.94s6.09-1.92,8-3c4.16-2.47,8.56-5.7,13.15-7.32,4,2.11,8.47,5.35,12.48,7.34,1.82.91,5.9,4.09,8.1,2.34,2-1.62.08-5.49-.4-7.33-1.11-4.3-2.22-9.73-3.34-14.16,3.43-3.21,7.13-6.42,10.53-9.62,1.56-1.47,5.63-4,4.88-6.64" transform="translate(-0.15 0)"/><path class="cls-8" d="M297,435.91v-1.14c0-13.41-7.85-21.65-19.31-21.65a18.81,18.81,0,0,0-13.28,5.63A18.45,18.45,0,0,0,258.9,432a19,19,0,0,0,5.29,13.35,17.83,17.83,0,0,0,13.61,5.76c8.05,0,14-3.82,17.5-11.33H283.63a7.85,7.85,0,0,1-5.49,2c-4.63,0-7.38-2-8.31-5.83Zm-10.66-7.51H269.49c.74-3.42,3.89-5.7,8.31-5.7,4.22,0,7.24,2,8.52,5.7" transform="translate(-0.15 0)"/><path class="cls-8" d="M337.06,435.91v-1.14c0-13.41-7.85-21.65-19.31-21.65a18.81,18.81,0,0,0-13.28,5.63A18.45,18.45,0,0,0,299,432a19,19,0,0,0,5.29,13.35,17.83,17.83,0,0,0,13.61,5.76c8.05,0,14-3.82,17.5-11.33H323.71a7.83,7.83,0,0,1-5.49,2c-4.63,0-7.38-2-8.31-5.83ZM326.4,428.4H309.57c.74-3.42,3.89-5.7,8.31-5.7,4.23,0,7.24,2,8.52,5.7" transform="translate(-0.15 0)"/><path class="cls-8" d="M243.89,422.23v28h10.39v-28h4.22v-8h-4.22v-.87c0-3.28.74-4.36,4-4.36h.26v-7.24c-.6,0-1.14-.06-1.67-.06-8.85,0-13,3.48-13,11.19,0,.4.07.87.07,1.34H240v8Z" transform="translate(-0.15 0)"/><path class="cls-8" d="M341.08,422.23v28h10.39v-28h4.22v-8h-4.22v-.87c0-3.28.74-4.36,3.95-4.36h.27v-7.24c-.6,0-1.14-.06-1.68-.06-8.84,0-13,3.48-13,11.19,0,.4.07.87.07,1.34h-3.89v8Z" transform="translate(-0.15 0)"/><path class="cls-8" d="M393.68,432a19,19,0,0,0-32.51-13.08,18.47,18.47,0,0,0-5.49,13.21A18.78,18.78,0,0,0,361,445.36a17.79,17.79,0,0,0,13.61,5.77,18.7,18.7,0,0,0,13.68-5.63A18.33,18.33,0,0,0,393.68,432m-10.52.26a8.52,8.52,0,1,1-8.51-8.91,8.68,8.68,0,0,1,8.51,8.91" transform="translate(-0.15 0)"/><path class="cls-8" d="M409.94,426.11a10.12,10.12,0,0,1-9.48-9.51h22.3v-.25c0-8.76-5.6-14.59-13.33-14.59-8.17,0-13.72,6-13.72,13.77a13.66,13.66,0,0,0,13.57,13.81c5.69,0,10.22-3.16,12.65-9h-2.25a10.11,10.11,0,0,1-9.13,5.79l-.61,0" transform="translate(-0.15 0)"/><path class="cls-8" d="M438.26,426.11a10.12,10.12,0,0,0,9.48-9.51h-22.3v-.25c0-8.76,5.6-14.59,13.33-14.59,8.18,0,13.72,6,13.72,13.77a13.66,13.66,0,0,1-13.57,13.81c-5.7,0-10.22-3.16-12.65-9h2.25a10.11,10.11,0,0,0,9.14,5.79l.6,0" transform="translate(-0.15 0)"/><path class="cls-9" d="M249.91,281.39c-6.3,0-10.95-4.49-10.95-11.11s4.65-11.1,10.95-11.1,10.87,4.49,10.87,11.1-4.65,11.11-10.87,11.11m10.87-46.55v20.4c-2.84-3.62-7-5.75-12.76-5.75-10.55,0-19.22,9.06-19.22,20.79s8.67,20.79,19.22,20.79c5.75,0,9.92-2.12,12.76-5.75V290h10.16V234.84Zm-45.44,22.53v-6.78H205.18V290h10.16V271.15c0-8.27,6.69-10.63,12-10V249.81c-5,0-9.93,2.2-12,7.56m-39.69,24c-6.22,0-10.87-4.49-10.87-11.11s4.65-11.1,10.87-11.1,10.94,4.49,10.94,11.1-4.64,11.11-10.94,11.11m10.94-30.8v4.65c-2.83-3.54-7.08-5.75-12.83-5.75-10.48,0-19.14,9.06-19.14,20.79s8.66,20.79,19.14,20.79c5.75,0,10-2.2,12.83-5.75V290h10.16V250.59Zm-43.86,0L136,274.85l-7.16-24.26h-9.61l-7.17,24.18-6.69-24.18H94.61L107.13,290h9.69l7.24-23.86L131.31,290H141l12.52-39.38Zm-80.49,19.3,7.56-22.53,7.56,22.53ZM84.05,290H95.87L76.49,234.84H63L43.73,290H55.47l3.31-9.92h22Z" transform="translate(-0.15 0)"/><path class="cls-9" d="M275.34,202c1.19-5,4.89-7.95,10.32-7.95a9.56,9.56,0,0,1,9.77,7.95Zm.16,7.88h29.69a23.18,23.18,0,0,0,.39-4.18c0-11.57-8.26-20.79-19.92-20.79-12.36,0-20.79,9.06-20.79,20.79s8.35,20.8,21.58,20.8c7.56,0,13.47-3.08,17.17-8.43l-8.19-4.73a10.92,10.92,0,0,1-8.82,3.94c-5.36,0-9.69-2.2-11.11-7.4m-30.32,16.62A20.18,20.18,0,0,0,263,216.3l-8.82-5c-1.58,3.23-5,5.2-9.06,5.2a10.31,10.31,0,0,1-10.55-10.72c0-6.3,4.49-10.78,10.55-10.78a9.72,9.72,0,0,1,9,5.27l8.74-5.12A19.83,19.83,0,0,0,245.18,185a20.8,20.8,0,0,0,0,41.59m-37.41-1.11h10.16V186.06H207.77Zm5-44.1a6.26,6.26,0,1,0-6.22-6.22,6.3,6.3,0,0,0,6.22,6.22m-20.31,4.72-9.61,27.57-9.53-27.57H162.18l15,39.38h11.58l15-39.38Zm-43,6.78v-6.78H139.34v39.38H149.5V206.61c0-8.27,6.69-10.63,12-10V185.27c-5,0-9.93,2.2-12,7.56M102.8,202c1.18-5,4.88-7.95,10.31-7.95a9.56,9.56,0,0,1,9.77,7.95Zm.15,7.88h29.69a23.16,23.16,0,0,0,.4-4.18c0-11.57-8.27-20.79-19.93-20.79-12.36,0-20.79,9.06-20.79,20.79s8.35,20.8,21.58,20.8c7.56,0,13.47-3.08,17.17-8.43l-8.19-4.73a10.89,10.89,0,0,1-8.82,3.94c-5.36,0-9.69-2.2-11.11-7.4M67.44,226.54c11.73,0,20-6.31,20-16.62,0-11.26-9.29-14.18-18-16.93-8.35-2.52-10.48-4.33-10.48-7.72,0-3.15,2.68-5.51,7.25-5.51,5.59,0,8.58,2.91,10.55,7.08l9.14-5.27A21,21,0,0,0,66.18,169.2c-9.45,0-18.12,6-18.12,16.38s8.2,14,16.62,16.46c8.19,2.36,11.89,3.94,11.89,8,0,3.07-2.28,5.82-8.82,5.82-6.85,0-10.71-3.3-12.68-8.42l-9.29,5.43c3,8.19,10.39,13.63,21.66,13.63" transform="translate(-0.15 0)"/><path class="cls-9" d="M282.12,152.31c-6.3,0-10.95-4.49-10.95-11.1s4.65-11.11,10.95-11.11S293,134.59,293,141.21s-4.65,11.1-10.87,11.1M293,105.77v20.39c-2.84-3.62-7-5.74-12.76-5.74-10.55,0-19.22,9-19.22,20.79S269.68,162,280.23,162c5.75,0,9.92-2.13,12.76-5.75v4.65h10.16V105.77Zm-66.08,31.74c1.19-5,4.89-8,10.32-8a9.56,9.56,0,0,1,9.77,8Zm.16,7.87h29.69a23.15,23.15,0,0,0,.39-4.17c0-11.58-8.26-20.79-19.92-20.79-12.36,0-20.79,9-20.79,20.79S224.79,162,238,162c7.56,0,13.47-3.07,17.17-8.43L247,148.85a10.94,10.94,0,0,1-8.82,3.93c-5.36,0-9.69-2.2-11.11-7.4m-13.78-14.09v-9.77h-8.9v-11l-10.16,3.07v8h-6.85v9.77h6.85v16.37c0,10.64,4.81,14.81,19.06,13.24v-9.22c-5.83.31-8.9.24-8.9-4V131.29Zm-47.41,1.41c0-2.12,2.05-3.23,4.57-3.23a6.68,6.68,0,0,1,6.3,4l8.66-4.72c-3.07-5.44-8.58-8.35-15-8.35-8.12,0-15,4.49-15,12.52,0,13.86,20.32,10.71,20.32,16.46,0,2.28-2.2,3.38-5.43,3.38-3.94,0-6.62-1.89-7.72-5.12l-8.82,5c2.84,6.06,8.66,9.37,16.54,9.37,8.42,0,15.83-4.1,15.83-12.6,0-14.49-20.32-10.87-20.32-16.7m-27.72-11.18v21.26c0,6.85-3.7,9.77-8.67,9.77-4.56,0-7.79-2.76-7.79-8.12V121.52H111.54V145.7c0,10.47,6.53,16.3,14.88,16.3,5.28,0,9.38-2,11.74-5.51v4.41h10.16V121.52Zm-43.08,6.77v-6.77H84.92V160.9H95.08V142.07c0-8.26,6.69-10.63,12-10V120.73c-5,0-9.92,2.21-12,7.56m-10-22.52H44.52v10.39H59.33V160.9H70.19V116.16H85.08Z" transform="translate(-0.15 0)"/><path class="cls-8" d="M341.42,55.88c-5.36,0-9.29,2.12-11.73,5.67-2.21-3.62-5.83-5.67-10.72-5.67-5,0-8.74,2-10.94,5.28V57H297.87V96.36H308V74.23c0-5.91,3.07-8.9,7.4-8.9s6.62,2.83,6.62,7.48V96.36h10.16V74.23c0-5.91,2.83-8.9,7.32-8.9,4.25,0,6.62,2.83,6.62,7.48V96.36H356.3V72.1c0-9.84-5.9-16.22-14.88-16.22M279.2,57V78.24c0,6.86-3.7,9.77-8.66,9.77-4.57,0-7.79-2.76-7.79-8.11V57H252.58V81.16c0,10.47,6.54,16.3,14.89,16.3,5.28,0,9.37-2,11.73-5.51v4.41h10.16V57Zm-48.74-1.1c-5.28,0-9.37,2-11.74,5.51V57H208.56V96.36h10.16V75.1c0-6.86,3.7-9.77,8.66-9.77,4.57,0,7.8,2.75,7.8,8.11V96.36h10.16V72.18c0-10.47-6.54-16.3-14.88-16.3M189.9,96.36h10.16V57H189.9Zm5-44.1a6.31,6.31,0,0,0,6.3-6.22,6.26,6.26,0,1,0-12.52,0,6.29,6.29,0,0,0,6.22,6.22M183.52,66.75V57h-8.9V46L164.46,49V57h-6.85v9.77h6.85V83.13c0,10.63,4.81,14.8,19.06,13.23V87.14c-5.83.32-8.9.24-8.9-4V66.75Zm-52.06,21c-6.22,0-10.87-4.49-10.87-11.1s4.65-11.11,10.87-11.11,10.95,4.5,10.95,11.11-4.65,11.1-10.95,11.1M142.41,57v4.65c-2.84-3.55-7.09-5.75-12.84-5.75-10.47,0-19.13,9.05-19.13,20.79s8.66,20.79,19.13,20.79c5.75,0,10-2.2,12.84-5.75v4.65h10.16V57ZM93.82,96.36H104V38.87H93.82ZM69.17,68.08H59.48V51.39h9.69c4.65,0,8,3.54,8,8.35a8,8,0,0,1-8,8.34m0-26.85H48.61V96.36H59.48V78.24h9.69a18.51,18.51,0,1,0,0-37" transform="translate(-0.15 0)"/></g></g><path class="cls-9" d="M43.09,445.15l13-13.36c2.45-2.56,4.35-5.05,4.35-7.61a4.68,4.68,0,0,0-5-4.94c-2.93,0-5.1,1.74-6.35,4.45L42.82,420a13.38,13.38,0,0,1,12.55-8c6.52,0,12.55,4.34,12.55,12,0,4.62-2.66,8.58-6.25,12.17l-7.44,7.44H68.51v7.23H43.09Z" transform="translate(-0.15 0)"/><path class="cls-9" d="M71.84,431.73C71.84,420,77.39,412,87.06,412s15.21,8,15.21,19.77-5.49,19.78-15.21,19.78S71.84,443.47,71.84,431.73Zm23,0c0-8-2.67-12.49-7.77-12.49s-7.72,4.45-7.72,12.49,2.61,12.44,7.72,12.44S94.83,439.77,94.83,431.73Z" transform="translate(-0.15 0)"/><path class="cls-9" d="M104.68,445.15l13-13.36c2.45-2.56,4.35-5.05,4.35-7.61a4.68,4.68,0,0,0-5-4.94c-2.93,0-5.1,1.74-6.35,4.45l-6.3-3.69A13.37,13.37,0,0,1,117,412c6.52,0,12.55,4.34,12.55,12,0,4.62-2.67,8.58-6.25,12.17l-7.45,7.44H130.1v7.23H104.68Z" transform="translate(-0.15 0)"/><path class="cls-9" d="M133.68,445.15l13-13.36c2.45-2.56,4.35-5.05,4.35-7.61a4.68,4.68,0,0,0-4.95-4.94c-2.93,0-5.1,1.74-6.35,4.45l-6.3-3.69A13.37,13.37,0,0,1,146,412c6.52,0,12.55,4.34,12.55,12,0,4.62-2.67,8.58-6.25,12.17l-7.45,7.44H159.1v7.23H133.68Z" transform="translate(-0.15 0)"/></g></g></svg>