<svg xmlns="http://www.w3.org/2000/svg" xmlns:xlink="http://www.w3.org/1999/xlink" viewBox="0 0 480 480"><defs><style>.cls-1,.cls-5{fill:none;}.cls-2{isolation:isolate;}.cls-3{clip-path:url(#clip-path);}.cls-4{fill:#f6f6f8;}.cls-5{stroke:#49535f;stroke-width:2.77px;}.cls-6{mix-blend-mode:multiply;opacity:0.35;}.cls-7{clip-path:url(#clip-path-3);}.cls-8{clip-path:url(#clip-path-4);}.cls-9{clip-path:url(#clip-path-5);}.cls-10{fill:url(#linear-gradient);}.cls-11{clip-path:url(#clip-path-6);}.cls-12{fill:url(#linear-gradient-2);}.cls-13{clip-path:url(#clip-path-7);}.cls-14{fill:url(#linear-gradient-3);}.cls-15{clip-path:url(#clip-path-8);}.cls-16{fill:url(#linear-gradient-4);}.cls-17{clip-path:url(#clip-path-9);}.cls-18{fill:url(#linear-gradient-5);}.cls-19{clip-path:url(#clip-path-10);}.cls-20{fill:url(#linear-gradient-6);}.cls-21{clip-path:url(#clip-path-11);}.cls-22{fill:url(#linear-gradient-7);}.cls-23{clip-path:url(#clip-path-12);}.cls-24{fill:url(#linear-gradient-8);}.cls-25{clip-path:url(#clip-path-13);}.cls-26{fill:url(#linear-gradient-9);}.cls-27{fill:#49535f;}</style><clipPath id="clip-path" transform="translate(0 0)"><rect class="cls-1" width="480" height="480"/></clipPath><clipPath id="clip-path-3" transform="translate(0 0)"><rect class="cls-1" x="-17.39" y="-10.97" width="513.02" height="316.01"/></clipPath><clipPath id="clip-path-4" transform="translate(0 0)"><rect class="cls-1" x="1.24" y="3.52" width="475.76" height="299.45"/></clipPath><clipPath id="clip-path-5" transform="translate(0 0)"><path class="cls-1" d="M194.43,98.84h9.93V60.36h-9.93Zm88.81-38.48V81.14c0,6.69-3.62,9.54-8.47,9.54-4.46,0-7.62-2.69-7.62-7.92V60.36h-9.92V84c0,10.23,6.38,15.93,14.54,15.93,5.16,0,9.16-1.93,11.47-5.39v4.31h9.92V60.36ZM125.18,79.6c0-6.46,4.54-10.85,10.62-10.85s10.69,4.39,10.69,10.85S142,90.45,135.8,90.45s-10.62-4.38-10.62-10.85m-9.93,0c0,11.47,8.47,20.32,18.7,20.32,5.62,0,9.77-2.16,12.54-5.62v4.54h9.93V60.36h-9.93V64.9c-2.77-3.46-6.92-5.61-12.54-5.61-10.23,0-18.7,8.84-18.7,20.31M223.37,64.67V60.36h-9.93V98.84h9.93V78.06c0-6.69,3.61-9.54,8.46-9.54,4.47,0,7.62,2.69,7.62,7.92v22.4h9.93V75.22c0-10.24-6.39-15.93-14.54-15.93-5.16,0-9.16,1.92-11.47,5.38m110,.16c-2.15-3.54-5.69-5.54-10.46-5.54-4.93,0-8.54,1.92-10.7,5.15V60.36h-9.93V98.84h9.93V77.21c0-5.77,3-8.69,7.23-8.69s6.47,2.77,6.47,7.31v23h9.93V77.21c0-5.77,2.76-8.69,7.15-8.69,4.16,0,6.47,2.77,6.47,7.31v23h9.92V75.14c0-9.62-5.77-15.85-14.54-15.85-5.23,0-9.08,2.07-11.47,5.54M168.81,52.59v7.77h-6.7v9.55h6.7v16c0,10.39,4.69,14.47,18.62,12.93v-9c-5.69.3-8.69.23-8.69-3.93v-16h8.69V60.36h-8.69V49.59ZM63.92,54.9h9.47c4.54,0,7.85,3.46,7.85,8.16a7.81,7.81,0,0,1-7.85,8.15H63.92ZM53.3,45V98.84H63.92V81.14h9.47a18.09,18.09,0,1,0,0-36.17Zm140,4.7a6.12,6.12,0,0,0,12.24,0,6.12,6.12,0,1,0-12.24,0m-95,49.17h9.92V42.67H98.25Z"/></clipPath><linearGradient id="linear-gradient" x1="544.35" y1="673.84" x2="546.42" y2="673.84" gradientTransform="matrix(0, -27.66, -27.66, 0, 18845.26, 15156.95)" gradientUnits="userSpaceOnUse"><stop offset="0" stop-color="#49525f"/><stop offset="0.1" stop-color="#515a68"/><stop offset="0.4" stop-color="#646e7b"/><stop offset="0.7" stop-color="#6f7987"/><stop offset="1" stop-color="#737d8b"/></linearGradient><clipPath id="clip-path-6" transform="translate(0 0)"><path class="cls-1" d="M142.34,123.11v20.78c0,6.69-3.62,9.54-8.47,9.54-4.46,0-7.61-2.7-7.61-7.93V123.11h-9.93v23.62c0,10.24,6.39,15.93,14.54,15.93,5.16,0,9.16-1.92,11.47-5.38v4.3h9.92V123.11Zm-42.86,6.62v-6.62H89.55v38.47h9.93V143.19c0-8.08,6.54-10.39,11.69-9.77V122.34c-4.85,0-9.69,2.15-11.69,7.39M160,134.27c0,13.54,19.85,10.46,19.85,16.08,0,2.23-2.15,3.31-5.31,3.31-3.84,0-6.46-1.85-7.54-5l-8.62,4.85c2.77,5.92,8.47,9.15,16.16,9.15,8.23,0,15.47-4,15.47-12.31,0-14.16-19.85-10.62-19.85-16.31,0-2.08,2-3.16,4.46-3.16a6.51,6.51,0,0,1,6.16,3.93l8.46-4.62c-3-5.31-8.39-8.16-14.62-8.16-7.93,0-14.62,4.39-14.62,12.24M241.45,131a9.33,9.33,0,0,1,9.54,7.77H231.38c1.15-4.92,4.76-7.77,10.07-7.77m-20.31,11.39c0,11.46,8.15,20.31,21.08,20.31,7.39,0,13.16-3,16.78-8.23l-8-4.62a10.66,10.66,0,0,1-8.61,3.85c-5.23,0-9.47-2.16-10.85-7.23h29a23.07,23.07,0,0,0,.38-4.08c0-11.32-8.08-20.32-19.47-20.32-12.08,0-20.31,8.85-20.31,20.32m-22.47-27v7.77H192v9.54h6.7v16c0,10.39,4.69,14.46,18.62,12.92v-9c-5.69.31-8.7.23-8.7-3.92v-16h8.7v-9.54h-8.7V112.34ZM49.3,107.72v10.15H63.77v43.71H74.39V117.87H88.93V107.72Zm226.09,34.63c0-6.47,4.54-10.85,10.69-10.85s10.62,4.38,10.62,10.85-4.53,10.85-10.62,10.85-10.69-4.39-10.69-10.85m21.31-34.63v19.93c-2.76-3.54-6.84-5.62-12.46-5.62-10.31,0-18.78,8.85-18.78,20.32s8.47,20.31,18.78,20.31c5.62,0,9.7-2.07,12.46-5.61v4.53h9.93V107.72Z"/></clipPath><linearGradient id="linear-gradient-2" x1="543.7" y1="675.37" x2="545.77" y2="675.37" gradientTransform="matrix(0, -26.55, -26.55, 0, 18105.87, 14595.35)" gradientUnits="userSpaceOnUse"><stop offset="0" stop-color="#737d8b"/><stop offset="0.13" stop-color="#7e8795"/><stop offset="0.41" stop-color="#9199a7"/><stop offset="0.7" stop-color="#9da4b1"/><stop offset="1" stop-color="#a1a8b5"/></linearGradient><clipPath id="clip-path-7" transform="translate(0 0)"><path class="cls-1" d="M196.2,185.85l-9.38,26.94-9.32-26.94H166.58l14.62,38.48h11.31l14.62-38.48Zm15.7,38.48h9.93V185.85H211.9Zm-58.48-31.86v-6.62h-9.93v38.48h9.93V205.94c0-8.08,6.54-10.39,11.7-9.77V185.09c-4.85,0-9.7,2.15-11.7,7.38M117.1,193.7a9.34,9.34,0,0,1,9.54,7.78H107c1.15-4.93,4.77-7.78,10.08-7.78M96.78,205.09c0,11.47,8.16,20.32,21.09,20.32,7.39,0,13.16-3,16.77-8.24l-8-4.61A10.66,10.66,0,0,1,118,216.4c-5.23,0-9.46-2.15-10.85-7.23h29a23,23,0,0,0,.39-4.08c0-11.31-8.08-20.31-19.47-20.31-12.08,0-20.32,8.85-20.32,20.31m132.13,0a20.24,20.24,0,0,0,37.7,10.31L258,210.48a9.51,9.51,0,0,1-8.86,5.08,10.07,10.07,0,0,1-10.31-10.47c0-6.15,4.39-10.54,10.31-10.54a9.51,9.51,0,0,1,8.78,5.16l8.54-5a19.38,19.38,0,0,0-17.24-9.92,19.86,19.86,0,0,0-20.31,20.31m60.64-11.39a9.34,9.34,0,0,1,9.54,7.78H279.47c1.15-4.93,4.77-7.78,10.08-7.78m-20.32,11.39c0,11.47,8.16,20.32,21.08,20.32,7.39,0,13.16-3,16.78-8.24l-8-4.61a10.68,10.68,0,0,1-8.62,3.84c-5.23,0-9.47-2.15-10.85-7.23h29a23,23,0,0,0,.39-4.08c0-11.31-8.09-20.31-19.47-20.31-12.09,0-20.32,8.85-20.32,20.31M52.77,185.39c0,10.24,8,13.7,16.23,16.09,8,2.3,11.62,3.84,11.62,7.85,0,3-2.23,5.69-8.62,5.69-6.69,0-10.46-3.23-12.38-8.23l-9.09,5.3c2.93,8,10.16,13.32,21.17,13.32,11.46,0,19.54-6.16,19.54-16.24,0-11-9.08-13.85-17.62-16.54-8.16-2.47-10.23-4.23-10.23-7.54,0-3.08,2.61-5.39,7.08-5.39,5.46,0,8.38,2.85,10.31,6.92l8.92-5.15a20.46,20.46,0,0,0-19.23-12.08c-9.24,0-17.7,5.85-17.7,16m158-10.23a6.12,6.12,0,0,0,12.23,0,6.12,6.12,0,1,0-12.23,0"/></clipPath><linearGradient id="linear-gradient-3" x1="542.17" y1="674.96" x2="544.24" y2="674.96" gradientTransform="matrix(0, -27.25, -27.25, 0, 18573.52, 15000.54)" xlink:href="#linear-gradient-2"/><clipPath id="clip-path-8" transform="translate(0 0)"><path class="cls-1" d="M146,248.6l-6.54,23.7-7-23.7H123.1l-7,23.63-6.54-23.63H99l12.23,38.48h9.47l7.08-23.32,7.08,23.32h9.46l12.24-38.48Zm72.49,6.62V248.6h-9.93v38.48h9.93V268.69c0-8.08,6.54-10.39,11.7-9.78V247.83c-4.85,0-9.7,2.15-11.7,7.39m-50.17,12.62c0-6.46,4.54-10.85,10.62-10.85s10.7,4.39,10.7,10.85-4.55,10.85-10.7,10.85-10.62-4.39-10.62-10.85m-9.93,0c0,11.47,8.47,20.31,18.7,20.31,5.62,0,9.77-2.15,12.55-5.61v4.54h9.92V248.6h-9.92v4.54c-2.78-3.46-6.93-5.62-12.55-5.62-10.23,0-18.7,8.85-18.7,20.32M74,245.45l7.39,22H66.62Zm-6.61-12.24L48.54,287.08H60l3.23-9.7H84.7l3.23,9.7H99.48L80.55,233.21Zm175,34.63c0-6.46,4.54-10.85,10.7-10.85s10.61,4.39,10.61,10.85-4.54,10.85-10.61,10.85-10.7-4.39-10.7-10.85m21.31-34.63v19.93c-2.77-3.54-6.85-5.62-12.46-5.62-10.32,0-18.78,8.85-18.78,20.32s8.46,20.31,18.78,20.31c5.61,0,9.69-2.07,12.46-5.61v4.54h9.93V233.21Z"/></clipPath><linearGradient id="linear-gradient-4" x1="541.26" y1="675.99" x2="543.33" y2="675.99" gradientTransform="matrix(0, -26.55, -26.55, 0, 18105.5, 14655.98)" xlink:href="#linear-gradient-2"/><clipPath id="clip-path-9" transform="translate(0 0)"><path class="cls-1" d="M76.65,314.14c-3.08.15-4.17,4.94-5.16,7.09-2,4.39-3.71,7.71-5.72,12l-13.64,2.31c-2.16.36-6.68.29-7.17,3.2-.42,2.52,3.39,4.78,4.92,6.17l9.39,8.57c-1,4.45-1.93,9.93-2.9,14.27-.45,2-2.34,6.29,0,7.9s6.07-1.92,7.92-3c4.14-2.45,8.51-5.67,13.07-7.27,4,2.09,8.43,5.32,12.41,7.29,1.81.91,5.87,4.07,8.06,2.33,2-1.61.08-5.46-.4-7.29-1.1-4.28-2.21-9.68-3.32-14.08,3.41-3.19,7.09-6.38,10.47-9.56,1.55-1.46,5.6-4,4.85-6.61-.79-2.78-5.21-2.51-7.46-2.79L87.76,332.9c-2-4.32-3.94-7.51-5.92-11.91-.93-2.09-2-6.85-5-6.85h-.15"/></clipPath><linearGradient id="linear-gradient-5" x1="538.54" y1="677.05" x2="540.61" y2="677.05" gradientTransform="matrix(0, -29.95, -29.95, 0, 20352.21, 16503.19)" xlink:href="#linear-gradient-2"/><clipPath id="clip-path-10" transform="translate(0 0)"><path class="cls-1" d="M158.72,314.14c-3.08.15-4.17,4.94-5.16,7.09-2,4.39-3.71,7.71-5.72,12l-13.63,2.31c-2.17.36-6.69.29-7.18,3.2-.42,2.52,3.39,4.78,4.92,6.17l9.39,8.57c-1,4.45-1.93,9.93-2.9,14.27-.44,2-2.34,6.29,0,7.9s6.06-1.92,7.91-3c4.14-2.45,8.52-5.67,13.08-7.27,4,2.09,8.42,5.32,12.4,7.29,1.81.91,5.87,4.07,8.06,2.33,2-1.61.08-5.46-.39-7.29-1.11-4.28-2.22-9.68-3.33-14.08,3.41-3.19,7.1-6.38,10.47-9.56,1.55-1.46,5.6-4,4.85-6.61-.79-2.78-5.2-2.51-7.45-2.79l-14.25-1.79c-2-4.32-3.94-7.51-5.91-11.91-.94-2.09-2-6.85-5-6.85h-.15"/></clipPath><linearGradient id="linear-gradient-6" x1="538.54" y1="675.63" x2="540.61" y2="675.63" gradientTransform="matrix(0, -29.95, -29.95, 0, 20391.86, 16503.19)" xlink:href="#linear-gradient-2"/><clipPath id="clip-path-11" transform="translate(0 0)"><path class="cls-1" d="M240.8,314.14c-3.09.15-4.17,4.94-5.16,7.09-2,4.39-3.72,7.71-5.72,12l-13.64,2.31c-2.17.36-6.69.29-7.18,3.2-.42,2.52,3.39,4.78,4.92,6.17l9.4,8.57c-1,4.45-1.94,9.93-2.91,14.27-.44,2-2.34,6.29,0,7.9s6.06-1.92,7.91-3c4.14-2.45,8.52-5.67,13.08-7.27,4,2.09,8.43,5.32,12.4,7.29,1.82.91,5.87,4.07,8.06,2.33,2-1.61.08-5.46-.39-7.29-1.11-4.28-2.22-9.68-3.32-14.08,3.41-3.19,7.09-6.38,10.47-9.56,1.54-1.46,5.59-4,4.85-6.61-.8-2.78-5.21-2.51-7.46-2.79L251.9,332.9c-2-4.32-3.94-7.51-5.91-11.91-.94-2.09-2-6.85-5.05-6.85h-.14"/></clipPath><linearGradient id="linear-gradient-7" x1="538.54" y1="674.22" x2="540.61" y2="674.22" gradientTransform="matrix(0, -29.95, -29.95, 0, 20431.51, 16503.19)" xlink:href="#linear-gradient-2"/><clipPath id="clip-path-12" transform="translate(0 0)"><path class="cls-1" d="M322.87,314.14c-3.09.15-4.17,4.94-5.16,7.09-2,4.39-3.72,7.71-5.72,12l-13.64,2.31c-2.17.36-6.69.29-7.17,3.2-.42,2.52,3.38,4.78,4.91,6.17l9.4,8.57c-1,4.45-1.94,9.93-2.9,14.27-.45,2-2.35,6.29,0,7.9s6.06-1.92,7.92-3c4.13-2.45,8.51-5.67,13.07-7.27,4,2.09,8.43,5.32,12.4,7.29,1.82.91,5.88,4.07,8.07,2.33,2-1.61.08-5.46-.4-7.29-1.11-4.28-2.21-9.68-3.32-14.08,3.41-3.19,7.09-6.38,10.47-9.56,1.54-1.46,5.59-4,4.85-6.61-.79-2.78-5.21-2.51-7.46-2.79L334,332.9c-2-4.32-4-7.51-5.92-11.91-.94-2.09-2-6.85-5.05-6.85h-.14"/></clipPath><linearGradient id="linear-gradient-8" x1="538.54" y1="672.8" x2="540.61" y2="672.8" gradientTransform="matrix(0, -29.95, -29.95, 0, 20471.17, 16503.19)" xlink:href="#linear-gradient-2"/><clipPath id="clip-path-13" transform="translate(0 0)"><path class="cls-1" d="M404.94,314.14c-3.08.15-4.17,4.94-5.16,7.09-2,4.39-3.72,7.71-5.72,12l-13.64,2.31c-2.16.36-6.68.29-7.17,3.2-.42,2.52,3.39,4.78,4.92,6.17l9.39,8.57c-1,4.45-1.93,9.93-2.9,14.27-.45,2-2.35,6.29,0,7.9s6.05-1.92,7.91-3c4.14-2.45,8.51-5.67,13.08-7.27,4,2.09,8.42,5.32,12.4,7.29,1.81.91,5.87,4.07,8.06,2.33,2-1.61.08-5.46-.4-7.29-1.11-4.28-2.21-9.68-3.32-14.08,3.41-3.19,7.09-6.38,10.47-9.56,1.55-1.46,5.6-4,4.85-6.61-.79-2.78-5.21-2.51-7.46-2.79l-14.24-1.79c-2-4.32-3.94-7.51-5.92-11.91-.93-2.09-2-6.85-5.05-6.85h-.14"/></clipPath><linearGradient id="linear-gradient-9" x1="538.54" y1="671.38" x2="540.61" y2="671.38" gradientTransform="matrix(0, -29.95, -29.95, 0, 20510.82, 16503.19)" xlink:href="#linear-gradient-2"/></defs><g class="cls-2"><g id="Layer_1" data-name="Layer 1"><g class="cls-3"><polygon class="cls-4" points="1.39 1.39 1.39 478.61 240 478.61 478.61 478.61 478.61 1.39 1.39 1.39"/><g class="cls-3"><polygon class="cls-5" points="1.39 1.39 1.39 478.61 240 478.61 478.61 478.61 478.61 1.39 1.39 1.39"/></g><g class="cls-9"><rect class="cls-10" x="53.3" y="42.66" width="306.04" height="57.71"/></g><g class="cls-11"><rect class="cls-12" x="49.3" y="107.72" width="257.33" height="55.4"/></g><g class="cls-13"><rect class="cls-14" x="50.53" y="169" width="258.48" height="56.4"/></g><g class="cls-15"><rect class="cls-16" x="48.53" y="233.21" width="225.08" height="54.95"/></g><g class="cls-17"><rect class="cls-18" x="44.54" y="314.14" width="65.67" height="63.22"/></g><g class="cls-19"><rect class="cls-20" x="126.61" y="314.14" width="65.67" height="63.22"/></g><g class="cls-21"><rect class="cls-22" x="208.68" y="314.14" width="65.67" height="63.22"/></g><g class="cls-23"><rect class="cls-24" x="290.76" y="314.14" width="65.67" height="63.22"/></g><g class="cls-25"><rect class="cls-26" x="372.83" y="314.14" width="65.67" height="63.22"/></g><g class="cls-3"><path class="cls-27" d="M296.42,436.16V435c0-13.33-7.8-21.53-19.2-21.53a18.7,18.7,0,0,0-13.2,5.6,18.34,18.34,0,0,0-5.46,13.13,18.87,18.87,0,0,0,5.26,13.26,17.69,17.69,0,0,0,13.53,5.74c8,0,13.93-3.8,17.4-11.27h-11.6a7.81,7.81,0,0,1-5.46,2c-4.6,0-7.34-2-8.27-5.8Zm-10.6-7.46H269.09c.73-3.4,3.87-5.67,8.26-5.67,4.2,0,7.2,2,8.47,5.67" transform="translate(0 0)"/><path class="cls-27" d="M336.26,436.16V435c0-13.33-7.79-21.53-19.19-21.53a18.72,18.72,0,0,0-13.2,5.6,18.34,18.34,0,0,0-5.46,13.13,18.87,18.87,0,0,0,5.26,13.26,17.69,17.69,0,0,0,13.53,5.74c8,0,13.93-3.8,17.4-11.27H323a7.82,7.82,0,0,1-5.47,2c-4.59,0-7.33-2-8.26-5.8Zm-10.59-7.46H308.94c.73-3.4,3.86-5.67,8.26-5.67,4.2,0,7.2,2,8.47,5.67" transform="translate(0 0)"/><path class="cls-27" d="M243.64,422.57v27.79H254V422.57h4.2v-8H254v-.87c0-3.26.73-4.33,3.93-4.33h.27v-7.2c-.6,0-1.14-.06-1.67-.06-8.8,0-12.93,3.46-12.93,11.13,0,.4.07.86.07,1.33h-3.87v8Z" transform="translate(0 0)"/><path class="cls-27" d="M340.26,422.57v27.79h10.33V422.57h4.2v-8h-4.2v-.87c0-3.26.74-4.33,3.94-4.33h.26v-7.2c-.6,0-1.13-.06-1.66-.06-8.8,0-12.93,3.46-12.93,11.13,0,.4.06.86.06,1.33H336.4v8Z" transform="translate(0 0)"/><path class="cls-27" d="M392.57,432.23a18.91,18.91,0,0,0-32.33-13,18.36,18.36,0,0,0-5.46,13.13,18.73,18.73,0,0,0,5.26,13.2,17.68,17.68,0,0,0,13.53,5.73,18.55,18.55,0,0,0,13.6-5.6,18.21,18.21,0,0,0,5.4-13.46m-10.47.27a8.47,8.47,0,1,1-8.46-8.87,8.63,8.63,0,0,1,8.46,8.87" transform="translate(0 0)"/><path class="cls-27" d="M408.73,426.42A10.07,10.07,0,0,1,399.3,417h22.17v-.24c0-8.71-5.56-14.51-13.25-14.51-8.13,0-13.64,6-13.64,13.69a13.58,13.58,0,0,0,13.49,13.73c5.66,0,10.16-3.14,12.58-8.94h-2.24a10,10,0,0,1-9.08,5.75l-.6,0" transform="translate(0 0)"/><path class="cls-27" d="M436.88,426.42a10.07,10.07,0,0,0,9.43-9.46H424.14v-.24c0-8.71,5.56-14.51,13.25-14.51,8.13,0,13.65,6,13.65,13.69a13.58,13.58,0,0,1-13.5,13.73c-5.66,0-10.16-3.14-12.58-8.94h2.24a10.05,10.05,0,0,0,9.08,5.75l.6,0" transform="translate(0 0)"/></g></g><path class="cls-27" d="M43.09,445.15l13-13.36c2.45-2.56,4.35-5.05,4.35-7.61a4.68,4.68,0,0,0-5-4.94c-2.93,0-5.1,1.74-6.35,4.45L42.82,420a13.38,13.38,0,0,1,12.55-8c6.52,0,12.55,4.34,12.55,12,0,4.62-2.66,8.58-6.25,12.17l-7.44,7.44H68.51v7.23H43.09Z" transform="translate(0 0)"/><path class="cls-27" d="M71.84,431.73C71.84,420,77.39,412,87.06,412s15.21,8,15.21,19.77-5.49,19.78-15.21,19.78S71.84,443.47,71.84,431.73Zm23,0c0-8-2.67-12.49-7.77-12.49s-7.72,4.45-7.72,12.49,2.61,12.44,7.72,12.44S94.83,439.77,94.83,431.73Z" transform="translate(0 0)"/><path class="cls-27" d="M104.68,445.15l13-13.36c2.45-2.56,4.35-5.05,4.35-7.61a4.68,4.68,0,0,0-5-4.94c-2.93,0-5.1,1.74-6.35,4.45l-6.3-3.69A13.37,13.37,0,0,1,117,412c6.52,0,12.55,4.34,12.55,12,0,4.62-2.67,8.58-6.25,12.17l-7.45,7.44H130.1v7.23H104.68Z" transform="translate(0 0)"/><path class="cls-27" d="M133.68,445.15l13-13.36c2.45-2.56,4.35-5.05,4.35-7.61a4.68,4.68,0,0,0-4.95-4.94c-2.93,0-5.1,1.74-6.35,4.45l-6.3-3.69A13.37,13.37,0,0,1,146,412c6.52,0,12.55,4.34,12.55,12,0,4.62-2.67,8.58-6.25,12.17l-7.45,7.44H159.1v7.23H133.68Z" transform="translate(0 0)"/></g></g></svg>